<?xml version="1.0" standalone="no"?>
<!DOCTYPE svg PUBLIC "-//W3C//DTD SVG 20010904//EN"
 "http://www.w3.org/TR/2001/REC-SVG-20010904/DTD/svg10.dtd">
<svg version="1.0" xmlns="http://www.w3.org/2000/svg"
 width="284.000000pt" height="232.000000pt" viewBox="0 0 284.000000 232.000000"
 preserveAspectRatio="xMidYMid meet">

<g transform="translate(0.000000,232.000000) scale(0.100000,-0.100000)"
fill="#CDC4A8" stroke="none">
<path d="M47 2295 c-31 -30 -42 -88 -41 -205 1 -97 6 -128 28 -195 55 -164
141 -270 299 -372 74 -48 244 -132 317 -156 33 -11 45 -20 44 -34 -3 -38 -37
-181 -70 -292 -74 -248 -81 -344 -30 -387 14 -13 45 -28 69 -35 50 -14 155 -6
195 15 40 21 82 104 93 187 13 88 37 145 80 186 40 37 110 59 161 49 l36 -7
25 -107 c46 -195 93 -483 127 -779 l12 -103 40 0 41 0 -6 58 c-12 108 -40 732
-34 738 3 4 17 4 31 0 29 -7 24 19 61 -346 15 -140 34 -309 43 -375 l17 -120
36 -3 37 -3 7 264 c4 145 6 328 3 407 l-3 142 65 -6 c36 -3 145 -6 243 -6 165
0 178 -1 173 -18 -2 -9 -8 -80 -11 -157 -3 -77 -10 -216 -15 -310 -13 -236
-13 -235 8 -235 33 0 43 17 56 91 12 65 44 220 101 494 21 100 29 115 60 115
17 0 25 -6 25 -17 0 -34 -69 -449 -94 -567 -14 -66 -25 -121 -23 -121 1 -1 16
-5 33 -8 31 -6 32 -4 54 51 120 307 233 630 270 776 l18 71 24 -55 c14 -30 28
-68 32 -83 7 -31 26 -27 26 6 l0 21 14 -20 c8 -11 18 -33 21 -47 8 -32 25 -26
25 9 0 30 14 24 42 -20 l20 -31 -5 70 c-7 118 -62 211 -152 257 -21 11 -58 39
-81 61 -64 63 -155 113 -228 127 l-65 12 -32 -37 c-35 -39 -118 -86 -188 -105
-195 -52 -559 -15 -781 81 -82 35 -43 40 65 8 162 -48 301 -69 460 -69 209 0
282 24 398 130 106 97 167 222 167 343 0 67 -22 107 -58 107 -39 -1 -111 -45
-178 -110 -81 -79 -109 -90 -164 -65 -21 10 -46 15 -54 12 -8 -3 -27 -31 -42
-62 -54 -111 -138 -149 -186 -85 -12 17 -27 30 -34 30 -7 0 -36 -21 -66 -46
-29 -25 -71 -55 -93 -66 -62 -32 -249 -38 -230 -8 3 6 26 10 50 10 87 0 140
19 226 81 95 68 122 73 164 29 16 -16 38 -30 50 -30 25 0 65 39 65 62 0 28
-239 158 -377 204 -70 23 -89 26 -178 21 -187 -9 -426 -110 -520 -219 -32 -38
-36 -40 -62 -29 -43 18 -72 46 -88 85 -20 48 -19 86 5 146 26 65 25 105 -1
131 -16 16 -28 19 -52 14 -93 -19 -115 -18 -131 8 -19 29 -22 94 -7 157 15 65
13 88 -9 110 -33 33 -68 26 -114 -25 -68 -73 -128 -52 -141 50 -16 125 -72
196 -118 150z m958 -959 c46 -33 7 -116 -54 -116 -35 0 -51 17 -51 54 0 58 61
94 105 62z m-159 -62 c13 -19 15 -32 8 -52 -20 -57 -107 -69 -120 -16 -18 71
74 127 112 68z m-166 -464 c20 -12 1 -64 -25 -68 -16 -3 -18 -1 -7 9 20 21 15
41 -8 34 -25 -8 -27 10 -2 24 21 13 24 13 42 1z m174 -36 c19 -19 20 -26 4
-42 -18 -18 -27 -15 -21 8 8 29 -15 25 -29 -5 -12 -27 -28 -33 -28 -11 0 16
38 66 50 66 5 0 16 -7 24 -16z"/>
<path d="M948 1309 c-22 -12 -23 -32 -3 -49 20 -16 47 5 43 33 -4 25 -17 30
-40 16z"/>
<path d="M776 1254 c-22 -22 -15 -39 15 -39 19 0 24 5 24 24 0 30 -17 37 -39
15z"/>
</g>
</svg>
